<?xml version="1.0" encoding="utf-8"?>
<!-- Generator: Adobe Illustrator 16.0.0, SVG Export Plug-In . SVG Version: 6.00 Build 0)  -->
<!DOCTYPE svg PUBLIC "-//W3C//DTD SVG 1.1//EN" "http://www.w3.org/Graphics/SVG/1.1/DTD/svg11.dtd">
<svg version="1.1" id="Layer_1" xmlns="http://www.w3.org/2000/svg" xmlns:xlink="http://www.w3.org/1999/xlink" x="0px" y="0px"
	 width="288px" height="288px" viewBox="0 0 288 288" enable-background="new 0 0 288 288" xml:space="preserve">
<g>
	<path fill="#1F3561" d="M143.853,5.089c-76.528,0-139.11,59.385-141.997,133.446c8.382,3.597,16.764,7.19,25.154,10.77
		c16.978,7.242,34.015,14.347,50.979,21.622c2.445,1.051,4.524,1.007,7.02,0.141c4.591-1.599,9.32-2.819,14.039-4.011
		c2.264-0.572,4.2-1.294,5.641-3.325c9.807-13.829,19.665-27.62,29.563-41.378c1.837-2.551,2.517-5.301,2.88-8.392
		c1.619-13.742,7.742-25.231,18.856-33.482c19.523-14.495,43.146-14.128,62.185,1.041c9.767,7.785,15.237,18.272,17.306,30.768
		c2.222,13.422-0.783,25.417-8.239,36.459c-7.431,11.005-17.856,18.291-30.857,20.082c-9.035,1.243-15.685,5.778-22.436,10.817
		c-9.356,6.983-18.573,14.152-27.935,21.134c-3.432,2.562-5.612,5.304-6.384,9.96c-2.863,17.268-13.71,28.539-30.844,31.767
		c-15.89,2.995-33.457-4.929-40.251-20.379c-0.835-1.897-2.124-3.729-2.409-5.707c-0.603-4.159-3.217-6.007-6.733-7.495
		c-16.827-7.125-33.642-14.277-50.456-21.432c18.765,55.229,72.151,95.179,134.918,95.179c78.361,0,142.113-62.262,142.113-138.792
		S222.214,5.089,143.853,5.089z"/>
	<path fill="#1F3561" d="M221.635,119.645c-0.249-20.177-16.576-34.765-35.115-34.957c-19.036-0.194-35.002,16.25-35.212,35.5
		c-0.19,17.445,14.713,35.424,35.385,35.06C203.203,155.581,221.908,141.518,221.635,119.645z M161.563,119.598
		c0.163-12.463,10.4-24.611,25.018-24.501c13.821,0.104,24.921,11.415,24.801,25.455c-0.114,13.538-11.485,25.142-25.101,24.243
		C172.951,145.555,161.381,133.543,161.563,119.598z"/>
	<path fill="#1F3561" d="M114.348,222.577c-8.53,5.314-18.951,4.681-26.198-1.743c-1.124-0.995-2.147-2.157-3.404-2.941
		c-2.099-1.306-4.322-1.446-6.152,0.541c-1.794,1.946-1.679,3.901-0.026,6.053c6.227,8.108,14.982,12.169,24.58,11.56
		c18.948-1.206,29.9-15.991,29.517-31.013c0.846-15.613-12.473-29.654-29.733-30.803c-2.349-0.155-4.861,0.521-7.128,1.3
		c-2.03,0.698-3.543,2.36-3.117,4.788c0.396,2.246,1.909,3.71,4.195,3.983c1.856,0.224,3.754,0.104,5.635,0.133
		c9.672,0.147,17.84,6.034,20.096,15.179C124.817,208.558,121.248,218.276,114.348,222.577z"/>
</g>
</svg>
