<?xml version="1.0" encoding="UTF-8" standalone="no"?>
<!-- Created with Inkscape (http://www.inkscape.org/) -->

<svg
   xmlns:dc="http://purl.org/dc/elements/1.1/"
   xmlns:cc="http://creativecommons.org/ns#"
   xmlns:rdf="http://www.w3.org/1999/02/22-rdf-syntax-ns#"
   xmlns:svg="http://www.w3.org/2000/svg"
   xmlns="http://www.w3.org/2000/svg"
   xmlns:sodipodi="http://sodipodi.sourceforge.net/DTD/sodipodi-0.dtd"
   xmlns:inkscape="http://www.inkscape.org/namespaces/inkscape"
   width="50px"
   height="49.999981px"
   id="svg2"
   version="1.1"
   inkscape:version="0.48.2 r9819"
   sodipodi:docname="Google-Logo.svg"
   style="display:inline">
  <defs
     id="defs4">
    <linearGradient
       id="linearGradient7673">
      <stop
         style="stop-color:#ffffff;stop-opacity:1"
         offset="0"
         id="stop7675" />
      <stop
         style="stop-color:#ffffff;stop-opacity:1;"
         offset="1"
         id="stop7677" />
    </linearGradient>
    <linearGradient
       id="linearGradient3674">
      <stop
         style="stop-color:#ffffff;stop-opacity:1;"
         offset="0"
         id="stop3676" />
      <stop
         style="stop-color:#000000;stop-opacity:0;"
         offset="1"
         id="stop3678" />
    </linearGradient>
    <linearGradient
       id="linearGradient3645">
      <stop
         style="stop-color:#ffffff;stop-opacity:1;"
         offset="0"
         id="stop3647" />
      <stop
         style="stop-color:#000000;stop-opacity:0.94736842"
         offset="1"
         id="stop3649" />
    </linearGradient>
    <inkscape:perspective
       sodipodi:type="inkscape:persp3d"
       inkscape:vp_x="0 : 526.18109 : 1"
       inkscape:vp_y="0 : 1000 : 0"
       inkscape:vp_z="744.09448 : 526.18109 : 1"
       inkscape:persp3d-origin="372.04724 : 350.78739 : 1"
       id="perspective10" />
    <inkscape:perspective
       id="perspective2838"
       inkscape:persp3d-origin="0.5 : 0.33333333 : 1"
       inkscape:vp_z="1 : 0.5 : 1"
       inkscape:vp_y="0 : 1000 : 0"
       inkscape:vp_x="0 : 0.5 : 1"
       sodipodi:type="inkscape:persp3d" />
    <inkscape:perspective
       id="perspective2852"
       inkscape:persp3d-origin="0.5 : 0.33333333 : 1"
       inkscape:vp_z="1 : 0.5 : 1"
       inkscape:vp_y="0 : 1000 : 0"
       inkscape:vp_x="0 : 0.5 : 1"
       sodipodi:type="inkscape:persp3d" />
    <inkscape:perspective
       id="perspective7795"
       inkscape:persp3d-origin="0.5 : 0.33333333 : 1"
       inkscape:vp_z="1 : 0.5 : 1"
       inkscape:vp_y="0 : 1000 : 0"
       inkscape:vp_x="0 : 0.5 : 1"
       sodipodi:type="inkscape:persp3d" />
    <inkscape:perspective
       id="perspective7817"
       inkscape:persp3d-origin="0.5 : 0.33333333 : 1"
       inkscape:vp_z="1 : 0.5 : 1"
       inkscape:vp_y="0 : 1000 : 0"
       inkscape:vp_x="0 : 0.5 : 1"
       sodipodi:type="inkscape:persp3d" />
    <inkscape:perspective
       id="perspective8022"
       inkscape:persp3d-origin="0.5 : 0.33333333 : 1"
       inkscape:vp_z="1 : 0.5 : 1"
       inkscape:vp_y="0 : 1000 : 0"
       inkscape:vp_x="0 : 0.5 : 1"
       sodipodi:type="inkscape:persp3d" />
    <filter
       inkscape:collect="always"
       id="filter8149"
       x="-0.138845"
       width="1.2776901"
       y="-0.23834647"
       height="1.4766929"
       color-interpolation-filters="sRGB">
      <feGaussianBlur
         inkscape:collect="always"
         stdDeviation="5.701753"
         id="feGaussianBlur8151" />
    </filter>
    <filter
       inkscape:collect="always"
       id="filter8197"
       x="-0.57794684"
       width="2.1558938"
       y="-0.25785139"
       height="1.5157028"
       color-interpolation-filters="sRGB">
      <feGaussianBlur
         inkscape:collect="always"
         stdDeviation="4.9912344"
         id="feGaussianBlur8199" />
    </filter>
    <filter
       inkscape:collect="always"
       id="filter8213"
       x="-0.57907385"
       width="2.1581476"
       y="-0.72858703"
       height="2.4571741"
       color-interpolation-filters="sRGB">
      <feGaussianBlur
         inkscape:collect="always"
         stdDeviation="7.327109"
         id="feGaussianBlur8215" />
    </filter>
    <filter
       inkscape:collect="always"
       id="filter8219"
       x="-0.60103309"
       width="2.2020662"
       y="-0.65816259"
       height="2.3163252"
       color-interpolation-filters="sRGB">
      <feGaussianBlur
         inkscape:collect="always"
         stdDeviation="8.0029751"
         id="feGaussianBlur8221" />
    </filter>
    <filter
       inkscape:collect="always"
       id="filter8251"
       x="-0.085549749"
       width="1.1710995"
       y="-0.40912703"
       height="1.818254"
       color-interpolation-filters="sRGB">
      <feGaussianBlur
         inkscape:collect="always"
         stdDeviation="2.7105059"
         id="feGaussianBlur8253" />
    </filter>
    <filter
       inkscape:collect="always"
       id="filter8275"
       x="-0.31412879"
       width="1.6282576"
       y="-0.53641981"
       height="2.0728397"
       color-interpolation-filters="sRGB">
      <feGaussianBlur
         inkscape:collect="always"
         stdDeviation="4.4114508"
         id="feGaussianBlur8277" />
    </filter>
    <inkscape:perspective
       id="perspective8467"
       inkscape:persp3d-origin="0.5 : 0.33333333 : 1"
       inkscape:vp_z="1 : 0.5 : 1"
       inkscape:vp_y="0 : 1000 : 0"
       inkscape:vp_x="0 : 0.5 : 1"
       sodipodi:type="inkscape:persp3d" />
    <filter
       inkscape:collect="always"
       id="filter8590"
       x="-0.16222404"
       width="1.3244481"
       y="-0.31908804"
       height="1.6381761"
       color-interpolation-filters="sRGB">
      <feGaussianBlur
         inkscape:collect="always"
         stdDeviation="7.9782798"
         id="feGaussianBlur8592" />
    </filter>
    <filter
       inkscape:collect="always"
       id="filter8594"
       x="-0.23080222"
       width="1.4616044"
       y="-0.25744399"
       height="1.514888"
       color-interpolation-filters="sRGB">
      <feGaussianBlur
         inkscape:collect="always"
         stdDeviation="5.3313618"
         id="feGaussianBlur8596" />
    </filter>
    <filter
       inkscape:collect="always"
       id="filter8694"
       color-interpolation-filters="sRGB">
      <feGaussianBlur
         inkscape:collect="always"
         stdDeviation="0.80077951"
         id="feGaussianBlur8696" />
    </filter>
    <inkscape:perspective
       id="perspective8736"
       inkscape:persp3d-origin="0.5 : 0.33333333 : 1"
       inkscape:vp_z="1 : 0.5 : 1"
       inkscape:vp_y="0 : 1000 : 0"
       inkscape:vp_x="0 : 0.5 : 1"
       sodipodi:type="inkscape:persp3d" />
  </defs>
  <sodipodi:namedview
     id="base"
     pagecolor="#ffffff"
     bordercolor="#666666"
     borderopacity="1.0"
     inkscape:pageopacity="0.0"
     inkscape:pageshadow="2"
     inkscape:zoom="12.257141"
     inkscape:cx="49.719749"
     inkscape:cy="28.723954"
     inkscape:document-units="px"
     inkscape:current-layer="layer1"
     showgrid="false"
     inkscape:window-width="1920"
     inkscape:window-height="1028"
     inkscape:window-x="-8"
     inkscape:window-y="-8"
     inkscape:window-maximized="1"
     fit-margin-top="0.1"
     fit-margin-left="0.1"
     fit-margin-right="0.1"
     fit-margin-bottom="0.1">
    <inkscape:grid
       type="xygrid"
       id="grid3127"
       empspacing="5"
       visible="true"
       enabled="true"
       snapvisiblegridlinesonly="true" />
  </sodipodi:namedview>
  <metadata
     id="metadata7">
    <rdf:RDF>
      <cc:Work
         rdf:about="">
        <dc:format>image/svg+xml</dc:format>
        <dc:type
           rdf:resource="http://purl.org/dc/dcmitype/StillImage" />
        <dc:title></dc:title>
      </cc:Work>
    </rdf:RDF>
  </metadata>
  <g
     inkscape:groupmode="layer"
     id="layer11"
     inkscape:label="Shadow"
     style="display:inline"
     transform="translate(-374.90003,-448.44987)" />
  <g
     inkscape:label="Basic"
     inkscape:groupmode="layer"
     id="layer1"
     style="display:inline"
     transform="translate(-352.09179,-792.46709)">
    <g
       id="g3133"
       transform="matrix(1.0375001,0,0,1.0375001,-13.207213,-31.588816)">
      <rect
         ry="5.9999776"
         rx="5.9999776"
         y="794.36707"
         x="352.19177"
         height="47.999977"
         width="47.999996"
         id="rect3129"
         style="fill:#4d90fe;fill-opacity:1;fill-rule:evenodd;stroke:none" />
      <path
         inkscape:connector-curvature="0"
         sodipodi:nodetypes="csscscscscsssssssssssccccccscscccsssssssc"
         id="path8122"
         d="m 377.84234,800.33903 c -0.42632,-1.5e-4 -1.42669,0.0231 -2.61942,0.2397 -2.81907,0.50993 -6.71642,2.37105 -7.81921,6.24759 -1.70558,5.99528 2.68628,8.37653 2.68628,8.37653 0,0 1.53834,0.90389 2.17354,1.0812 1.90914,0.53291 3.94029,0.28441 3.94029,0.28441 0,0 -0.80991,2.68142 0.81368,4.57562 0.38763,0.45222 0.10597,0.46814 0.10597,0.46814 0,0 -7.09595,-0.18305 -10.45536,3.38292 -3.35944,3.56616 -1.53821,6.8495 -1.53821,6.8495 0,0 1.76027,4.29182 9.35743,4.50874 7.63096,0.21774 12.3505,-4.30181 12.7627,-7.71335 0.20733,-1.71475 -0.0269,-3.32117 -0.88616,-4.72608 -0.83551,-1.36643 -2.2712,-2.54275 -3.67277,-3.68946 -0.87086,-0.71254 -1.4766,-1.07834 -1.86703,-1.48808 -0.36878,-0.38703 -0.43102,-0.88553 -0.41796,-1.25954 0.0192,-0.52231 0.29327,-1.1628 1.20939,-2.22372 1.671,-1.93537 2.09465,-1.69449 3.10428,-3.1433 0.30252,-0.4343 0.52529,-1.06798 0.83599,-2.0119 0.18729,-0.56867 0.15607,-1.15728 0.15607,-1.70543 4e-5,-1.18506 -0.2844,-2.31405 -0.75794,-3.26588 -0.87977,-1.76891 -2.38986,-2.9172 -2.4188,-3.00398 l 2.64727,0 2.99841,-1.75558 -10.11537,-0.0269 c 0,0 -0.0809,5e-5 -0.22315,0 z m -2.17353,1.64412 c 1.54291,0.0115 3.86097,0.8099 5.24996,4.97685 2.38353,7.15068 -2.60827,8.24282 -2.60827,8.24282 0,0 -5.72002,0.88082 -6.77147,-5.47851 -1.0711,-6.47803 1.53748,-6.82845 2.55811,-7.46808 0,0 0.64589,-0.27941 1.57167,-0.27324 z m 3.16,21.06675 c 0,0 4.55415,2.79148 4.98245,4.83757 0.47987,2.29244 0.51216,3.9621 -2.96493,5.79058 -1.02648,0.5398 -2.82807,0.60265 -3.9626,0.60747 -2.78848,0.0115 -4.89465,-1.06147 -5.93548,-1.5995 -0.5409,-0.27978 -3.54512,-3.65325 -1.32082,-6.67114 0.55948,-0.75916 1.17947,-1.09571 1.75557,-1.48249 1.22599,-0.82315 2.42943,-1.20661 4.69819,-1.40446 0.75464,-0.0659 1.76019,-0.0115 2.74762,-0.0782 z"
         style="fill:#ffffff;fill-opacity:1;stroke:none;display:inline" />
    </g>
  </g>
  <g
     inkscape:groupmode="layer"
     id="layer3"
     inkscape:label="Secondary"
     style="display:inline"
     transform="translate(-352.09179,-792.46709)" />
</svg>
